{"title":"Drive.Angry.3D.2011.DVDRip.XviD-EXViD","uid":6749262,"size":1478896231,"categoryP":"video","categoryS":"movies","magnet":"?xt=urn:btih:c3fdd1647ab326d467ad9492e54cdee7d6887f62&amp;dn=Drive.Angry.3D.2011.DVDRip.XviD-EXViD&amp;tr=udp%3A%2F%2Ftracker.openbittorrent.com%3A80&amp;tr=udp%3A%2F%2Fopen.demonii.com%3A1337&amp;tr=udp%3A%2F%2Ftracker.coppersurfer.tk%3A6969&amp;tr=udp%3A%2F%2Fexodus.desync.com%3A6969","seeders":1,"leechers":0,"uploader":"TvTeam","files":10,"time":1318828335,"description":". \n &lt;a href=&quot;\nhttp://www.torrenting.com&quot; rel=&quot;nofollow&quot; target=&quot;_NEW&quot;&gt;\nhttp://www.torrenting.com&lt;/a&gt;          :     Once &amp; For all ;)\n\n\n               www . Torrenting . Com \n\n(((((((((((((= Enjoy No RAR releases =))))))))))))))))))))\n\n\n...................................NFO:....................................\n\n.                                                                                                     \n       \n     \n     \n       \n       \n     \n     \n                                         \n                                         \n                EXVID                    \n                                         \n         \n                                         \n         Filled the Archives             \n                                         \n         \n                                         \n                With:                    \n                                         \n         \n                                         \n                                    \n     E240                           \n                                    \n     SP               (C) 2009      \n                                         \n     \n     \n     \n                                                                                  \n                                                                                   \n                 Drive.Angry.3D.2011.DVDRip.XviD-EXViD                              \n                                                                                   \n                                                                                  \n     \n                                                                                               \nEXViD aims to iNTERNAL those releases which have been lost in the archives.\nEXViD aims to PRE non-internal releases which have poor sources and are likely skipped by others.\n &lt;a href=&quot;\nhttp://www.imdb.com/title/tt1502404/&quot; rel=&quot;nofollow&quot; target=&quot;_NEW&quot;&gt;\nhttp://www.imdb.com/title/tt1502404/&lt;/a&gt;\nSubtitles: NL\nDate: 2011.10\n\nDirector: Patrick Lussier\n\nGenres: Action | Crime | Fantasy | Thriller\n\nPlot:\nJohn Milton is up against the clock: Jonah King, the leader of a Satanic cult, has murdered\nMilton's daughter and kidnapped her baby. In three days, King and his followers will sacrifice\nthe child at midnight. Milton picks up the trail in Oklahoma as well as rescuing a waitress named\nPiper from her brutal, two-timing fianc. There are odd things about Milton: his driver's license\nis out of date, he has a very strange gun, and he's being pursued by a man in a suit who carries\nFBI ID and calls himself the Accountant. Piper, who's lived a life on the sidelines, has to piece\nthings together on the fly as they close in on King.\n\nCast:\nNicolas Cage \t ... \tMilton \nAmber Heard \t ... \tPiper \nWilliam Fichtner \t ... \tThe Accountant \nBilly Burke \t ... \tJonah King \nDavid Morse \t ... \tWebster \nTodd Farmer \t ... \t Frank \nChrista Campbell \t ... \t Mona \nCharlotte Ross \t ... \t Candy \nTom Atkins \t ... \t Cap \nJack McGee \t ... \t Fat Lou \nKaty Mixon \t ... \t Norma Jean \nWanetah Walmsley \t ... \t American Indian Mother \nRobin McGee \t ... \t Guy with Camera Phone \nFabian C. Moreno \t ... \t Latino Busboy \nEdrick Browne \t ... \t Rookie\n\nStats:\nFormat                           : AVI\nFormat/Info                      : Audio Video Interleave\nFile size                        : 1.37 GiB\nDuration                         : 1h 40mn\nOverall bit rate                 : 1 953 Kbps\nWriting application              : VirtualDubMod 1.5.10.2 (build 2540/release)\nWriting library                  : VirtualDubMod build 2540/release\n\nVideo\nID                               : 0\nFormat                           : MPEG-4 Visual\nFormat profile                   : Advanced Simple@L5\nFormat settings, BVOP            : Yes\nFormat settings, QPel            : No\nFormat settings, GMC             : No warppoints\nFormat settings, Matrix          : Default (H.263)\nMuxing mode                      : Packed bitstream\nCodec ID                         : XVID\nCodec ID/Hint                    : XviD\nDuration                         : 1h 40mn\nBit rate                         : 1 495 Kbps\nWidth                            : 624 pixels\nHeight                           : 352 pixels\nDisplay aspect ratio             : 16:9\nFrame rate                       : 25.000 fps\nColor space                      : YUV\nChroma subsampling               : 4:2:0\nBit depth                        : 8 bits\nScan type                        : Progressive\nBits/(Pixel*Frame)               : 0.272\nStream size                      : 1.05 GiB (77%)\nWriting library                  : XviD 62\n\nAudio\nID                               : 1\nFormat                           : AC-3\nFormat/Info                      : Audio Coding 3\nMode extension                   : CM (complete main)\nCodec ID                         : 2000\nDuration                         : 1h 40mn\nBit rate mode                    : Constant\nBit rate                         : 448 Kbps\nChannel(s)                       : 6 channels\nChannel positions                : Front: L C R, Side: L R, LFE\nSampling rate                    : 48.0 KHz\nBit depth                        : 16 bits\nStream size                      : 321 MiB (23%)\nAlignment                        : Split accross interleaves\nInterleave, duration             : 40 ms (1.00 video frame)\nInterleave, preload duration     : 500 ms\n\n\n\n\nRelease notes:\nThis is the 3D version. DEFACED did the 2D version, sample included.\n\nenjoy!\n\nLooking for:\n75TB+ Archives\nDUTCH/FLEMiSH Archives\n                                                                                                    \nGreets: CRBS EPiSODE FiCO FLS iLS KLASSiGER LiPSYNC MADE NODLABS RUNNER SPRiNTER      \n   \n\n                                                                    ASCII DONE BY XX^NFO 2oo9","torrent":{"xt":"urn:btih:c3fdd1647ab326d467ad9492e54cdee7d6887f62","amp;dn":"Drive.Angry.3D.2011.DVDRip.XviD-EXViD","amp;tr":["udp%3A%2F%2Ftracker.openbittorrent.com%3A80","udp%3A%2F%2Fopen.demonii.com%3A1337","udp%3A%2F%2Ftracker.coppersurfer.tk%3A6969","udp%3A%2F%2Fexodus.desync.com%3A6969"],"infoHash":"c3fdd1647ab326d467ad9492e54cdee7d6887f62","infoHashBuffer":{"type":"Buffer","data":[195,253,209,100,122,179,38,212,103,173,148,146,229,76,222,231,214,136,127,98]},"announce":[],"urlList":[]}}